<svg width="131" height="40" viewBox="0 0 131 40" fill="none" xmlns="http://www.w3.org/2000/svg">
<rect width="131" height="40" fill="#1E1E1E"/>
<rect width="241" height="832.219" transform="translate(-24 -24)" fill="black"/>
<g clip-path="url(#clip0_0_1)">
<path d="M0.923828 20.1156C0.923828 30.7435 9.70337 39.523 20.3312 39.523C30.9591 39.523 39.7386 30.7435 39.7386 20.1156C39.7386 9.48775 30.9591 0.82373 20.3312 0.82373C9.70337 0.82373 0.923828 9.48775 0.923828 20.1156ZM27.4935 29.1262C22.9882 26.3537 17.2122 25.6606 10.512 27.1624C8.89473 27.3934 8.66369 25.083 10.0499 24.8519C17.4432 23.1191 23.6813 23.9278 28.7642 27.0468C30.0349 27.8555 28.7642 29.8193 27.4935 29.1262ZM29.4573 23.9278C24.2589 20.6932 16.288 19.7691 10.1655 21.6174C8.20161 22.195 7.50848 19.1915 9.35681 18.7294C16.4035 16.65 25.0676 17.6897 31.0746 21.3863C32.6919 22.426 31.0746 24.9675 29.4573 23.9278ZM9.24129 15.7258C7.27744 16.419 6.00672 13.0689 8.20161 12.2602C15.0173 10.1809 26.5693 10.5274 33.7316 14.8017C35.6954 15.8414 33.8471 19.0759 31.7677 17.9207C25.5296 14.2241 15.1328 13.8775 9.24129 15.7258ZM53.0235 26.2382C51.0596 26.2382 49.2113 25.5451 47.594 23.9278C47.4785 23.9278 47.4785 24.0433 47.4785 24.0433L45.6302 26.2382C45.5147 26.3537 45.5147 26.4692 45.6302 26.5848C47.7095 28.4331 50.251 29.3572 53.0235 29.3572C56.9512 29.3572 59.3771 27.1624 59.3771 23.9278C59.3771 21.1553 57.6443 19.6535 53.6011 18.6139C50.251 17.8052 49.6734 17.2276 49.6734 16.0724C49.6734 14.9172 50.8286 14.2241 52.3304 14.2241C53.8321 14.2241 55.2184 14.8017 56.8356 15.9569C56.8356 15.9569 56.9512 16.0724 57.0667 16.0724C57.1822 16.0724 57.1822 15.9569 57.1822 15.9569L58.7995 13.6465C58.915 13.531 58.915 13.531 58.7995 13.4154C56.9512 11.9137 54.7563 11.105 52.3304 11.105C48.7492 11.105 46.2078 13.2999 46.2078 16.419C46.2078 19.7691 48.5182 20.8087 52.2148 21.7329C55.4494 22.426 55.9115 23.1191 55.9115 24.2743C55.9115 25.5451 54.7563 26.2382 53.0235 26.2382ZM63.9979 17.3431V15.8414C63.9979 15.7258 63.8824 15.6103 63.7669 15.6103H60.7633C60.6478 15.6103 60.5323 15.7258 60.5323 15.8414V32.8228C60.5323 32.9384 60.6478 33.0539 60.7633 33.0539H63.7669C63.8824 33.0539 63.9979 32.9384 63.9979 32.8228V27.5089C65.1531 28.7796 66.4238 29.3572 68.1566 29.3572C71.2757 29.3572 74.3947 26.9313 74.3947 22.3105C74.3947 17.6897 71.2757 15.3793 68.1566 15.3793C66.4238 15.3793 65.1531 15.9569 63.9979 17.3431ZM67.4635 26.3537C65.3841 26.3537 63.8824 24.6209 63.8824 22.3105C63.8824 20.0001 65.3841 18.3828 67.4635 18.3828C69.5429 18.3828 70.9291 20.0001 70.9291 22.3105C70.9291 24.6209 69.5429 26.3537 67.4635 26.3537ZM75.3189 22.426C75.3189 26.3537 78.4379 29.3572 82.4811 29.3572C86.5244 29.3572 89.6434 26.2382 89.6434 22.3105C89.6434 18.3828 86.6399 15.3793 82.5967 15.3793C78.5535 15.3793 75.3189 18.4983 75.3189 22.426ZM78.7845 22.3105C78.7845 20.0001 80.2863 18.3828 82.4811 18.3828C84.676 18.3828 86.2933 20.1156 86.2933 22.426C86.2933 24.7364 84.7915 26.3537 82.5967 26.3537C80.4018 26.3537 78.7845 24.6209 78.7845 22.3105ZM94.9573 15.6103V12.2602C94.9573 12.1447 94.9573 12.0292 94.8418 12.0292H91.8383C91.7228 12.0292 91.6072 12.1447 91.6072 12.2602V15.6103H90.1055C89.99 15.6103 89.8744 15.7258 89.8744 15.8414V18.3828C89.8744 18.4983 89.99 18.6139 90.1055 18.6139H91.6072V25.314C91.6072 27.971 92.878 29.3572 95.5349 29.3572C96.5746 29.3572 97.6143 29.1262 98.4229 28.6641C98.5385 28.6641 98.5385 28.5486 98.5385 28.4331V26.0072C98.5385 25.8916 98.5385 25.7761 98.4229 25.7761H98.1919C97.6143 26.1227 96.9212 26.2382 96.3436 26.2382C95.4194 26.2382 94.9573 25.7761 94.9573 24.8519V18.6139H98.4229C98.5385 18.6139 98.654 18.4983 98.654 18.3828V15.8414C98.654 15.7258 98.5385 15.6103 98.4229 15.6103H94.9573ZM109.859 15.2638C109.859 13.993 110.322 13.531 111.361 13.531C111.939 13.531 112.516 13.531 113.094 13.762H113.21C113.21 13.762 113.325 13.6465 113.325 13.531V11.105C113.325 10.9895 113.325 10.874 113.21 10.874C112.632 10.643 111.823 10.5274 110.668 10.5274C107.896 10.5274 106.509 12.1447 106.509 15.0327V15.6103H105.008C104.892 15.6103 104.777 15.7258 104.777 15.8414V18.3828C104.777 18.4983 104.892 18.6139 105.008 18.6139H106.509V28.8952C106.509 29.0107 106.625 29.1262 106.74 29.1262H109.744C109.859 29.1262 109.859 29.0107 109.859 28.8952V18.6139H112.747L117.022 28.8952C116.56 29.9348 116.098 30.1659 115.404 30.1659C114.827 30.1659 114.249 30.0504 113.672 29.7038H113.556L113.441 29.8193L112.401 32.0142C112.401 32.1297 112.401 32.3608 112.516 32.3608C113.556 32.9384 114.48 33.1694 115.635 33.1694C117.83 33.1694 119.101 32.1297 120.141 29.3572L125.339 15.9569V15.7258C125.339 15.6103 125.224 15.6103 125.108 15.6103H121.989C121.874 15.6103 121.874 15.7258 121.874 15.8414L118.639 24.8519L115.173 15.8414C115.173 15.7258 115.058 15.6103 114.942 15.6103H109.859V15.2638ZM100.271 15.6103C100.156 15.6103 100.04 15.7258 100.04 15.8414V28.8952C100.04 29.0107 100.156 29.1262 100.271 29.1262H103.275C103.39 29.1262 103.39 29.0107 103.39 28.8952V15.8414C103.39 15.7258 103.39 15.6103 103.275 15.6103H100.271ZM99.5781 11.7982C99.5781 12.9534 100.618 13.993 101.773 13.993C102.928 13.993 103.852 12.9534 103.852 11.7982C103.852 10.643 102.928 9.71879 101.773 9.71879C100.618 9.71879 99.5781 10.643 99.5781 11.7982ZM127.881 19.7691C129.036 19.7691 130.075 18.8449 130.075 17.6897C130.075 16.5345 129.036 15.6103 127.881 15.6103C126.725 15.6103 125.801 16.5345 125.801 17.6897C125.801 18.8449 126.725 19.7691 127.881 19.7691ZM127.881 15.8414C128.92 15.8414 129.844 16.65 129.844 17.6897C129.844 18.7294 128.92 19.538 127.881 19.538C126.841 19.538 126.032 18.7294 126.032 17.6897C126.032 16.65 126.841 15.8414 127.881 15.8414ZM128.343 17.9207C128.689 17.8052 128.92 17.5742 128.92 17.2276C128.92 16.7655 128.458 16.5345 127.996 16.5345H127.072V18.7294H127.534V18.0363H127.996L128.458 18.7294H129.036L128.343 17.9207ZM127.996 16.881C128.227 16.881 128.458 16.9966 128.458 17.2276C128.458 17.4587 128.227 17.5742 127.996 17.5742H127.534V16.881H127.996Z" fill="white"/>
</g>
<defs>
<clipPath id="clip0_0_1">
<rect width="131" height="40" fill="white"/>
</clipPath>
</defs>
</svg>
